<svg xmlns="http://www.w3.org/2000/svg" width="147.67" height="95.5" viewBox="0 0 147.67 95.5">
  <g id="Group_100" data-name="Group 100" transform="translate(-10396 -11444)">
    <path id="Path_134" data-name="Path 134" d="M47.5,28H38a.763.763,0,0,1-.763-.763v-4.65A10.236,10.236,0,0,1,47.8,12.593H62.707a10.236,10.236,0,0,1,10.556,9.99v8.735c0,5.561-4.921,8.194-10.556,9.99L50.134,45.589c-1.919.615-2.928.96-2.928,2.78v5.118H72.647a.763.763,0,0,1,.763.763v8.341a.369.369,0,0,1-.344.344H37.019a.369.369,0,0,1-.369-.344V46.032c0-5.561,4.921-8.194,10.556-9.99l12.573-4.158c1.919-.64,2.928-.984,2.928-2.78V24.8a2.461,2.461,0,0,0-2.928-2.78h-9.35A2.461,2.461,0,0,0,47.5,24.8Z" transform="translate(10392.542 11448.18)" fill="#1f2329" opacity="0.809"/>
    <path id="Path_135" data-name="Path 135" d="M145.065,12.737a9.645,9.645,0,0,1,10.383,9.842v12.6a9.645,9.645,0,0,1-10.383,9.842H130.031a1.353,1.353,0,0,0-1.329,1.353V61.283a1.353,1.353,0,0,1-1.255,1.353H119.6a1.353,1.353,0,0,1-1.329-1.353V14.09a1.329,1.329,0,0,1,1.329-1.353Zm-2.633,22.834a2.178,2.178,0,0,0,2.461-2.461V24.523a2.19,2.19,0,0,0-2.461-2.461h-12.3a1.329,1.329,0,0,0-1.329,1.353V34.168A1.329,1.329,0,0,0,130.13,35.5Z" transform="translate(10359.154 11448.479)" fill="#1f2329" opacity="0.809"/>
    <text id="_" data-name="[" transform="matrix(-1, 0, 0, 1, 10543.67, 11507.5)" fill="#1f2329" font-size="93" font-family="Eurostile-Med, Eurostile" letter-spacing="0.04em" opacity="0.809"><tspan x="0" y="0">[</tspan></text>
    <text id="_2" data-name="[" transform="translate(10396 11507)" fill="#1f2329" font-size="93" font-family="Eurostile-Med, Eurostile" letter-spacing="0.04em" opacity="0.809"><tspan x="0" y="0">[</tspan></text>
  </g>
</svg>
